<svg width="459" height="70" viewBox="0 0 459 70" fill="none" xmlns="http://www.w3.org/2000/svg">
<g filter="url(#filter0_d_1_2)">
<path d="M18.166 57.832C16.374 57.832 15.03 57.32 14.134 56.296C13.238 55.3147 12.79 54.0773 12.79 52.584V48.552C12.79 47.4 12.8967 46.3973 13.11 45.544C13.366 44.6907 13.6647 43.9227 14.006 43.24C14.3473 42.5573 14.7313 41.96 15.158 41.448C15.5847 40.8933 15.99 40.3813 16.374 39.912C17.0993 39.0587 17.59 38.3333 17.846 37.736C18.1447 37.096 18.294 36.4347 18.294 35.752C18.294 34.1307 17.5473 32.9573 16.054 32.232C14.5607 31.464 12.3633 31.08 9.462 31.08H4.47V27.112H9.462C12.3633 27.112 14.5607 26.7493 16.054 26.024C17.5473 25.256 18.294 24.0613 18.294 22.44C18.294 21.7573 18.1447 21.1173 17.846 20.52C17.59 19.88 17.0993 19.1333 16.374 18.28C15.99 17.8107 15.5847 17.32 15.158 16.808C14.7313 16.2533 14.3473 15.656 14.006 15.016C13.6647 14.3333 13.366 13.5653 13.11 12.712C12.8967 11.816 12.79 10.792 12.79 9.64V5.608C12.79 4.11466 13.238 2.87733 14.134 1.896C15.03 0.871997 16.374 0.359997 18.166 0.359997H29.43V4.328H17.206V9.256C17.206 11.0053 17.462 12.3493 17.974 13.288C18.486 14.2267 19.0833 15.144 19.766 16.04C20.4913 16.9787 21.174 17.96 21.814 18.984C22.454 19.9653 22.774 21.1387 22.774 22.504C22.774 24.296 22.134 25.7467 20.854 26.856C19.6167 27.9653 17.91 28.6693 15.734 28.968V29.224C17.91 29.5227 19.6167 30.2267 20.854 31.336C22.134 32.4453 22.774 33.896 22.774 35.688C22.774 37.0533 22.454 38.248 21.814 39.272C21.174 40.2533 20.4913 41.2133 19.766 42.152C19.0833 43.048 18.486 43.9653 17.974 44.904C17.462 45.8427 17.206 47.1867 17.206 48.936V53.864H29.43V57.832H18.166ZM66.909 49L63.133 36.264H47.453L43.677 49H38.109L51.805 4.328H58.909L72.605 49H66.909ZM55.581 10.024H55.005L48.733 31.592H61.853L55.581 10.024ZM92.484 0.359997C94.276 0.359997 95.62 0.871997 96.516 1.896C97.412 2.87733 97.86 4.11466 97.86 5.608V9.64C97.86 10.792 97.732 11.816 97.476 12.712C97.2627 13.5653 96.9853 14.3333 96.644 15.016C96.3027 15.656 95.9187 16.2533 95.492 16.808C95.0653 17.32 94.66 17.8107 94.276 18.28C93.5507 19.1333 93.0387 19.88 92.74 20.52C92.484 21.1173 92.356 21.7573 92.356 22.44C92.356 24.0613 93.1027 25.256 94.596 26.024C96.0893 26.7493 98.2867 27.112 101.188 27.112H106.18V31.08H101.188C98.2867 31.08 96.0893 31.464 94.596 32.232C93.1027 32.9573 92.356 34.1307 92.356 35.752C92.356 36.4347 92.484 37.096 92.74 37.736C93.0387 38.3333 93.5507 39.0587 94.276 39.912C94.66 40.3813 95.0653 40.8933 95.492 41.448C95.9187 41.96 96.3027 42.5573 96.644 43.24C96.9853 43.9227 97.2627 44.6907 97.476 45.544C97.732 46.3973 97.86 47.4 97.86 48.552V52.584C97.86 54.0773 97.412 55.3147 96.516 56.296C95.62 57.32 94.276 57.832 92.484 57.832H81.22V53.864H93.444V48.936C93.444 47.1867 93.188 45.8427 92.676 44.904C92.164 43.9653 91.5667 43.048 90.884 42.152C90.1587 41.2133 89.476 40.2533 88.836 39.272C88.196 38.248 87.876 37.0533 87.876 35.688C87.876 33.896 88.4947 32.4453 89.732 31.336C91.012 30.2267 92.74 29.5227 94.916 29.224V28.968C92.74 28.6693 91.012 27.9653 89.732 26.856C88.4947 25.7467 87.876 24.296 87.876 22.504C87.876 21.1387 88.196 19.9653 88.836 18.984C89.476 17.96 90.1587 16.9787 90.884 16.04C91.5667 15.144 92.164 14.2267 92.676 13.288C93.188 12.3493 93.444 11.0053 93.444 9.256V4.328H81.22V0.359997H92.484ZM143.659 49L139.883 36.264H124.203L120.427 49H114.859L128.555 4.328H135.659L149.355 49H143.659ZM132.331 10.024H131.755L125.483 31.592H138.603L132.331 10.024ZM181.138 15.976H186.258L169.874 56.232C169.49 57.1707 169.063 57.9813 168.594 58.664C168.125 59.3893 167.57 59.9653 166.93 60.392C166.29 60.8613 165.522 61.2027 164.626 61.416C163.73 61.672 162.663 61.8 161.426 61.8H156.562V57.448H164.242L167.954 48.36L154.642 15.976H159.89L165.458 29.8L170.386 42.344H170.642L175.57 29.8L181.138 15.976ZM216.633 43.624H216.377C216.036 44.4347 215.609 45.224 215.097 45.992C214.585 46.7173 213.945 47.3573 213.177 47.912C212.452 48.4667 211.577 48.9147 210.553 49.256C209.529 49.5973 208.334 49.768 206.969 49.768C203.513 49.768 200.74 48.68 198.649 46.504C196.558 44.2853 195.513 41.1707 195.513 37.16V15.976H200.633V36.264C200.633 39.2933 201.294 41.5547 202.617 43.048C203.94 44.4987 205.881 45.224 208.441 45.224C209.465 45.224 210.468 45.096 211.449 44.84C212.43 44.584 213.305 44.2 214.073 43.688C214.841 43.176 215.46 42.536 215.929 41.768C216.398 40.9573 216.633 39.9973 216.633 38.888V15.976H221.753V49H216.633V43.624ZM247.584 49.768C244.128 49.768 241.141 49.192 238.624 48.04C236.149 46.8453 234.037 45.2667 232.288 43.304L235.744 40.296C237.323 41.96 239.051 43.24 240.928 44.136C242.805 45.032 245.067 45.48 247.712 45.48C250.272 45.48 252.363 45.032 253.984 44.136C255.648 43.1973 256.48 41.7467 256.48 39.784C256.48 38.9307 256.309 38.2267 255.968 37.672C255.669 37.0747 255.243 36.6053 254.688 36.264C254.133 35.9227 253.515 35.6667 252.832 35.496C252.149 35.2827 251.424 35.112 250.656 34.984L245.472 34.216C244.32 34.0453 243.061 33.8107 241.696 33.512C240.373 33.2133 239.157 32.744 238.048 32.104C236.939 31.4213 236 30.5253 235.232 29.416C234.507 28.3067 234.144 26.856 234.144 25.064C234.144 23.4 234.464 21.9707 235.104 20.776C235.787 19.5387 236.725 18.5147 237.92 17.704C239.115 16.8507 240.523 16.232 242.144 15.848C243.765 15.4213 245.536 15.208 247.456 15.208C250.443 15.208 253.024 15.6773 255.2 16.616C257.419 17.5547 259.317 18.856 260.896 20.52L257.568 23.656C257.184 23.1867 256.693 22.7173 256.096 22.248C255.541 21.736 254.837 21.288 253.984 20.904C253.173 20.4773 252.213 20.136 251.104 19.88C249.995 19.624 248.715 19.496 247.264 19.496C244.661 19.496 242.656 19.944 241.248 20.84C239.883 21.736 239.2 23.0373 239.2 24.744C239.2 25.5973 239.349 26.3227 239.648 26.92C239.989 27.4747 240.437 27.9227 240.992 28.264C241.547 28.6053 242.165 28.8827 242.848 29.096C243.573 29.2667 244.299 29.416 245.024 29.544L250.208 30.312C251.403 30.4827 252.661 30.7173 253.984 31.016C255.307 31.3147 256.523 31.8053 257.632 32.488C258.741 33.128 259.659 34.0027 260.384 35.112C261.152 36.2213 261.536 37.672 261.536 39.464C261.536 42.7493 260.256 45.288 257.696 47.08C255.179 48.872 251.808 49.768 247.584 49.768ZM272.647 1.64H277.767V21.352H278.023C278.364 20.5413 278.791 19.7733 279.303 19.048C279.815 18.28 280.434 17.6187 281.159 17.064C281.927 16.5093 282.823 16.0613 283.847 15.72C284.871 15.3787 286.066 15.208 287.431 15.208C290.887 15.208 293.66 16.3173 295.751 18.536C297.842 20.712 298.887 23.8053 298.887 27.816V49H293.767V28.712C293.767 25.6827 293.106 23.4427 291.783 21.992C290.46 20.4987 288.519 19.752 285.959 19.752C284.935 19.752 283.932 19.88 282.951 20.136C281.97 20.392 281.095 20.776 280.327 21.288C279.559 21.8 278.94 22.4613 278.471 23.272C278.002 24.0827 277.767 25.0213 277.767 26.088V49H272.647V1.64Z" fill="#404040"/>
<path d="M323.95 49.576C322.201 49.576 320.963 49.2133 320.238 48.488C319.555 47.7627 319.214 46.8453 319.214 45.736V44.584C319.214 43.4747 319.555 42.5573 320.238 41.832C320.963 41.1067 322.201 40.744 323.95 40.744C325.699 40.744 326.915 41.1067 327.598 41.832C328.323 42.5573 328.686 43.4747 328.686 44.584V45.736C328.686 46.8453 328.323 47.7627 327.598 48.488C326.915 49.2133 325.699 49.576 323.95 49.576Z" fill="#FF383C" fill-opacity="0.5"/>
<path d="M370.325 43.624H370.069C367.936 47.72 364.544 49.768 359.893 49.768C355.84 49.768 352.661 48.2533 350.357 45.224C348.096 42.1947 346.965 37.9493 346.965 32.488C346.965 27.0267 348.096 22.7813 350.357 19.752C352.661 16.7227 355.84 15.208 359.893 15.208C364.544 15.208 367.936 17.256 370.069 21.352H370.325V1.64H375.445V49H370.325V43.624ZM361.877 45.224C363.029 45.224 364.117 45.0747 365.141 44.776C366.165 44.4773 367.061 44.0507 367.829 43.496C368.597 42.8987 369.194 42.1947 369.621 41.384C370.09 40.5307 370.325 39.5493 370.325 38.44V26.536C370.325 25.4267 370.09 24.4667 369.621 23.656C369.194 22.8027 368.597 22.0987 367.829 21.544C367.061 20.9467 366.165 20.4987 365.141 20.2C364.117 19.9013 363.029 19.752 361.877 19.752C358.89 19.752 356.565 20.6693 354.901 22.504C353.28 24.296 352.469 26.6853 352.469 29.672V35.304C352.469 38.2907 353.28 40.7013 354.901 42.536C356.565 44.328 358.89 45.224 361.877 45.224ZM401.276 49.768C398.887 49.768 396.732 49.3627 394.812 48.552C392.935 47.7413 391.313 46.5893 389.948 45.096C388.625 43.56 387.601 41.7467 386.876 39.656C386.151 37.5227 385.788 35.1547 385.788 32.552C385.788 29.9067 386.151 27.5173 386.876 25.384C387.644 23.2507 388.689 21.4373 390.012 19.944C391.335 18.408 392.913 17.2347 394.748 16.424C396.625 15.6133 398.695 15.208 400.956 15.208C403.175 15.208 405.18 15.6133 406.972 16.424C408.807 17.2347 410.364 18.3653 411.644 19.816C412.924 21.224 413.905 22.9093 414.588 24.872C415.271 26.8347 415.612 28.9893 415.612 31.336V33.768H391.164V35.304C391.164 36.7547 391.399 38.0987 391.868 39.336C392.337 40.5733 392.999 41.64 393.852 42.536C394.748 43.432 395.815 44.136 397.052 44.648C398.332 45.1173 399.74 45.352 401.276 45.352C403.495 45.352 405.415 44.84 407.036 43.816C408.657 42.792 409.895 41.384 410.748 39.592L414.524 42.152C413.543 44.3707 411.9 46.2053 409.596 47.656C407.335 49.064 404.561 49.768 401.276 49.768ZM400.956 19.432C399.548 19.432 398.247 19.688 397.052 20.2C395.857 20.712 394.812 21.416 393.916 22.312C393.063 23.208 392.38 24.2747 391.868 25.512C391.399 26.7067 391.164 28.0293 391.164 29.48V29.928H410.108V29.224C410.108 27.7733 409.873 26.4507 409.404 25.256C408.977 24.0613 408.359 23.0373 407.548 22.184C406.78 21.288 405.82 20.6053 404.668 20.136C403.559 19.6667 402.321 19.432 400.956 19.432ZM435.811 49L423.971 15.976H429.155L433.891 29.8L439.011 44.712H439.267L444.387 29.8L449.123 15.976H454.179L442.339 49H435.811Z" fill="#8C8C8C"/>
</g>
<defs>
<filter id="filter0_d_1_2" x="0.470001" y="0.359985" width="457.709" height="69.44" filterUnits="userSpaceOnUse" color-interpolation-filters="sRGB">
<feFlood flood-opacity="0" result="BackgroundImageFix"/>
<feColorMatrix in="SourceAlpha" type="matrix" values="0 0 0 0 0 0 0 0 0 0 0 0 0 0 0 0 0 0 127 0" result="hardAlpha"/>
<feOffset dy="4"/>
<feGaussianBlur stdDeviation="2"/>
<feComposite in2="hardAlpha" operator="out"/>
<feColorMatrix type="matrix" values="0 0 0 0 0 0 0 0 0 0 0 0 0 0 0 0 0 0 0.25 0"/>
<feBlend mode="normal" in2="BackgroundImageFix" result="effect1_dropShadow_1_2"/>
<feBlend mode="normal" in="SourceGraphic" in2="effect1_dropShadow_1_2" result="shape"/>
</filter>
</defs>
</svg>
